<svg xmlns="http://www.w3.org/2000/svg" style="display: none;">
  <symbol id="icon-code" viewBox="0 0 30 18" stroke="none">
    <path
      d="M6.98 17.8h-.7c-1.22 0-2.13-.28-2.73-.86-.6-.58-.89-1.46-.89-2.63V11c0-.31-.04-.59-.1-.83-.07-.25-.2-.46-.38-.62-.17-.18-.4-.3-.69-.4a3.68 3.68 0 0 0-1.08-.13H0V7.7h.4c.47 0 .85-.04 1.14-.12.29-.08.52-.2.68-.34.17-.16.28-.36.34-.6.07-.25.1-.54.1-.87V3.5a5 5 0 0 1 .19-1.45A2.65 2.65 0 0 1 4.59.25 5.03 5.03 0 0 1 6.28 0h.7v1.34h-.56c-1.47 0-2.2.72-2.2 2.16v2.23c0 1.56-.67 2.44-2 2.64 1.34.13 2.02 1 2.02 2.62v3.28c0 1.46.72 2.2 2.18 2.2h.56v1.34Z" />
    <path
      d="m6.83 13.6.87-1.33a10 10 0 0 0 1.66.94 5 5 0 0 0 1.94.37c.69 0 1.2-.13 1.56-.4.36-.3.54-.66.54-1.1 0-.37-.15-.68-.45-.93a4.24 4.24 0 0 0-1.1-.67c-.46-.2-.94-.39-1.46-.59a10 10 0 0 1-1.46-.68 3.75 3.75 0 0 1-1.13-.99 2.33 2.33 0 0 1-.43-1.43c0-.63.16-1.17.49-1.63.33-.47.8-.83 1.4-1.08.6-.25 1.28-.37 2.04-.37.87 0 1.59.15 2.16.45a5.8 5.8 0 0 1 1.52 1.1l-1 1.14a5.88 5.88 0 0 0-1.28-.8c-.4-.2-.91-.3-1.54-.3-.6 0-1.07.13-1.42.4-.33.25-.5.6-.5 1.05 0 .32.14.6.43.83.3.22.67.42 1.13.6l1.45.56c.52.2 1 .43 1.46.7.47.26.85.6 1.13 1 .3.4.45.9.45 1.5 0 .64-.18 1.2-.53 1.68a3.4 3.4 0 0 1-1.47 1.14 6.5 6.5 0 0 1-6.46-1.16Zm3.71-9.2V1.18h1.34V4.4h-1.34Zm0 10.05h1.34V18h-1.34v-3.55Zm12.24-7.9c0 1.04-.28 1.82-.85 2.36a3.9 3.9 0 0 1-2.48.9l-.08 2.36h-1.41l-.13-3.67h1.12c.38 0 .7-.04.96-.13.26-.08.47-.2.63-.35.16-.15.27-.34.34-.56.07-.22.1-.47.1-.74 0-.47-.09-.89-.28-1.25a2.64 2.64 0 0 0-.8-.92A3.68 3.68 0 0 0 18.68 4c-.47-.13-.98-.2-1.54-.2h-.24V2.3h.26c.64 0 1.22.07 1.75.19s1 .29 1.41.5a4.48 4.48 0 0 1 2.31 2.6c.1.33.15.65.15.97Zm-4.13 6.93c.18 0 .34.04.5.1.15.07.28.16.38.28a1.27 1.27 0 0 1 .27 1.39 1.19 1.19 0 0 1-.66.66 1.16 1.16 0 0 1-.97 0 1.3 1.3 0 0 1-.4-.26 1.23 1.23 0 0 1-.36-.9 1.27 1.27 0 0 1 1.24-1.27ZM23 0h.71c1.22 0 2.13.3 2.73.87.6.58.9 1.45.9 2.63v2.2c0 .32.03.6.1.85.06.24.19.45.36.62.17.16.4.3.7.38.29.1.65.14 1.1.14h.4v1.33h-.4c-.47 0-.85.04-1.15.11-.29.08-.52.2-.68.36a1.2 1.2 0 0 0-.34.6c-.07.24-.1.52-.1.85v3.36a5.1 5.1 0 0 1-.19 1.45 2.65 2.65 0 0 1-1.74 1.8c-.46.16-1.02.25-1.69.25h-.7v-1.34h.57c1.46 0 2.2-.72 2.2-2.16v-3.32c0-1.56.66-2.43 2-2.62-1.35-.15-2.03-1.03-2.03-2.64v-2.2c0-1.46-.72-2.19-2.17-2.19H23V0Z" />
  </symbol>
  <symbol id="icon-telegram" viewBox="0 0 24 22" stroke="none">
    <path d="M24 0 0 9.17l6.86 3.66L17.14 5.5l-6.85 9.17L20.57 22 24 0Z" />
  </symbol>
  <symbol id="icon-whatsapp" viewBox="0 0 26 26" stroke="none">
    <path fill-rule="evenodd" clip-rule="evenodd"
      d="M18.403 16.533c-.265.75-1.319 1.371-2.16 1.553-.574.122-1.325.219-3.852-.829-2.84-1.176-6.782-5.366-6.782-8.154 0-1.42.818-3.072 2.25-3.072.688 0 .84.013 1.066.557.266.64.912 2.218.99 2.38.317.663-.324 1.051-.79 1.63-.148.173-.316.36-.128.684.187.317.834 1.371 1.784 2.218 1.228 1.093 2.223 1.443 2.58 1.591.265.11.582.085.775-.122.246-.266.55-.705.86-1.14.22-.31.498-.348.79-.238.196.068 2.699 1.23 2.804 1.416.078.136.078.776-.187 1.526ZM12.003 1h-.006C5.932 1 1 5.934 1 12c0 2.405.825 4.675 1.925 6.188l-1.512 4.675 4.812-1.513C8.012 22.45 9.8 23 12.002 23 18.067 23 23 18.066 23 12S18.067 1 12.002 1Z" />
  </symbol>
</svg>
