<svg xmlns="http://www.w3.org/2000/svg" style="display: none;">
  <symbol id="icon-code" viewBox="0 0 30 18" stroke="none">
    <path
      d="M6.98 17.8h-.7c-1.22 0-2.13-.28-2.73-.86-.6-.58-.89-1.46-.89-2.63V11c0-.31-.04-.59-.1-.83-.07-.25-.2-.46-.38-.62-.17-.18-.4-.3-.69-.4a3.68 3.68 0 0 0-1.08-.13H0V7.7h.4c.47 0 .85-.04 1.14-.12.29-.08.52-.2.68-.34.17-.16.28-.36.34-.6.07-.25.1-.54.1-.87V3.5a5 5 0 0 1 .19-1.45A2.65 2.65 0 0 1 4.59.25 5.03 5.03 0 0 1 6.28 0h.7v1.34h-.56c-1.47 0-2.2.72-2.2 2.16v2.23c0 1.56-.67 2.44-2 2.64 1.34.13 2.02 1 2.02 2.62v3.28c0 1.46.72 2.2 2.18 2.2h.56v1.34Z" />
    <path
      d="m6.83 13.6.87-1.33a10 10 0 0 0 1.66.94 5 5 0 0 0 1.94.37c.69 0 1.2-.13 1.56-.4.36-.3.54-.66.54-1.1 0-.37-.15-.68-.45-.93a4.24 4.24 0 0 0-1.1-.67c-.46-.2-.94-.39-1.46-.59a10 10 0 0 1-1.46-.68 3.75 3.75 0 0 1-1.13-.99 2.33 2.33 0 0 1-.43-1.43c0-.63.16-1.17.49-1.63.33-.47.8-.83 1.4-1.08.6-.25 1.28-.37 2.04-.37.87 0 1.59.15 2.16.45a5.8 5.8 0 0 1 1.52 1.1l-1 1.14a5.88 5.88 0 0 0-1.28-.8c-.4-.2-.91-.3-1.54-.3-.6 0-1.07.13-1.42.4-.33.25-.5.6-.5 1.05 0 .32.14.6.43.83.3.22.67.42 1.13.6l1.45.56c.52.2 1 .43 1.46.7.47.26.85.6 1.13 1 .3.4.45.9.45 1.5 0 .64-.18 1.2-.53 1.68a3.4 3.4 0 0 1-1.47 1.14 6.5 6.5 0 0 1-6.46-1.16Zm3.71-9.2V1.18h1.34V4.4h-1.34Zm0 10.05h1.34V18h-1.34v-3.55Zm12.24-7.9c0 1.04-.28 1.82-.85 2.36a3.9 3.9 0 0 1-2.48.9l-.08 2.36h-1.41l-.13-3.67h1.12c.38 0 .7-.04.96-.13.26-.08.47-.2.63-.35.16-.15.27-.34.34-.56.07-.22.1-.47.1-.74 0-.47-.09-.89-.28-1.25a2.64 2.64 0 0 0-.8-.92A3.68 3.68 0 0 0 18.68 4c-.47-.13-.98-.2-1.54-.2h-.24V2.3h.26c.64 0 1.22.07 1.75.19s1 .29 1.41.5a4.48 4.48 0 0 1 2.31 2.6c.1.33.15.65.15.97Zm-4.13 6.93c.18 0 .34.04.5.1.15.07.28.16.38.28a1.27 1.27 0 0 1 .27 1.39 1.19 1.19 0 0 1-.66.66 1.16 1.16 0 0 1-.97 0 1.3 1.3 0 0 1-.4-.26 1.23 1.23 0 0 1-.36-.9 1.27 1.27 0 0 1 1.24-1.27ZM23 0h.71c1.22 0 2.13.3 2.73.87.6.58.9 1.45.9 2.63v2.2c0 .32.03.6.1.85.06.24.19.45.36.62.17.16.4.3.7.38.29.1.65.14 1.1.14h.4v1.33h-.4c-.47 0-.85.04-1.15.11-.29.08-.52.2-.68.36a1.2 1.2 0 0 0-.34.6c-.07.24-.1.52-.1.85v3.36a5.1 5.1 0 0 1-.19 1.45 2.65 2.65 0 0 1-1.74 1.8c-.46.16-1.02.25-1.69.25h-.7v-1.34h.57c1.46 0 2.2-.72 2.2-2.16v-3.32c0-1.56.66-2.43 2-2.62-1.35-.15-2.03-1.03-2.03-2.64v-2.2c0-1.46-.72-2.19-2.17-2.19H23V0Z" />
  </symbol>
  <symbol id="icon-telegram" viewBox="0 0 26 24" fill="none">
    <path stroke-linejoin="round" stroke-width="1.6" d="M25 1 1 10.17l6.86 3.66L18.14 6.5l-6.85 9.17L21.57 23 25 1Z" />
  </symbol>
  <symbol id="icon-telegram-fill" viewBox="0 0 24 22" stroke="none">
    <path d="M24 0 0 9.17l6.86 3.66L17.14 5.5l-6.85 9.17L20.57 22 24 0Z" />
  </symbol>
  <symbol id="icon-whatsapp" viewBox="0 0 26 26" stroke="none">
    <path
      d="m6.88 23.32.41-.69a.8.8 0 0 0-.63-.08l.22.77ZM2.56 19l.77.2a.8.8 0 0 0-.06-.58l-.71.38Zm-1.33 5.13-.78-.2.78.2Zm.64.62-.22-.77.22.77Zm16.4-7.74-.73-.35.72.35Zm-.37.55.59.54-.6-.54Zm-.89.63-.3-.74.3.74Zm-4.68-1.25-.47.64.47-.64Zm-1.77-1.52-.57.57.57-.57Zm-1.51-1.76-.65.47.65-.47Zm-1.06-1.84-.74.3v.01l.74-.31ZM7.79 9l.75.3-.75-.3Zm.63-.9.55.58v-.01l-.55-.57Zm1.56-.41-.35.72h.01l.34-.72Zm.36.3-.66.46h.01l.65-.46Zm1.26 1.77-.66.46.66-.46Zm.21.37-.74.3v.02l.74-.32Zm-.03.72-.69-.42v.01l-.01.01.7.4Zm-.3.38-.57-.57-.01.01.57.56Zm-.42.43.57.56-.57-.56ZM11 12l-.78.2.02.03.01.05L11 12Zm.04.1-.75.26.02.07.03.06.7-.39Zm.5.7-.6.51.6-.51Zm.8.85-.58.56.01.01.56-.57Zm.85.8-.52.6.52-.6Zm.7.49-.38.7.04.03.04.01.3-.74Zm.1.04-.32.74h.02l.02.01.28-.75Zm.35-.07-.56-.57.56.57Zm.41-.4.57.57-.57-.57Zm.4-.3.36.7h.03l.02-.02-.42-.69Zm1.09.16.46-.65-.01-.01-.45.66Zm1.79 1.27-.47.65h.01l.46-.65Zm.3.35.74-.3v-.01l-.01-.02-.74.33ZM6.46 24A12.82 12.82 0 0 0 13 25.8v-1.6c-2.02 0-4.03-.56-5.7-1.57l-.83 1.38ZM13 25.8c7.04 0 12.8-5.76 12.8-12.8h-1.6c0 6.16-5.04 11.2-11.2 11.2v1.6ZM25.8 13C25.8 5.96 20.04.2 13 .2v1.6c6.16 0 11.2 5.04 11.2 11.2h1.6ZM13 .2C5.96.2.2 5.96.2 13h1.6C1.8 6.84 6.84 1.8 13 1.8V.2ZM.2 13c0 2.31.64 4.48 1.65 6.38l1.42-.76A11.91 11.91 0 0 1 1.8 13H.2Zm1.59 5.8L.45 23.93l1.55.4 1.33-5.13-1.54-.4Zm.3 6.72L7.1 24.1l-.44-1.54-5.01 1.43.44 1.54Zm-1.64-1.6c-.25 1 .66 1.88 1.64 1.6l-.44-1.54c.2-.06.4.14.35.35l-1.55-.4Zm17.15-7.5c0 .07-.02.16-.06.24l1.45.69c.14-.3.21-.62.21-.93h-1.6Zm-.06.24a1.2 1.2 0 0 1-.24.36l1.19 1.08c.21-.24.37-.49.5-.75l-1.45-.69Zm-.23.36c-.2.21-.4.35-.6.43l.6 1.49a3.4 3.4 0 0 0 1.18-.84l-1.18-1.08Zm-.6.44c-.23.09-.48.14-.75.14v1.6c.48 0 .93-.09 1.36-.27l-.62-1.47Zm-.75.14c-.43 0-.91-.1-1.45-.33l-.63 1.47c.7.3 1.4.46 2.08.46v-1.6Zm-1.45-.33a8.7 8.7 0 0 1-1.7-.98l-.95 1.3c.66.47 1.34.86 2.02 1.15l.63-1.47Zm-1.7-.98c-.6-.43-1.15-.9-1.69-1.43L10 15.99c.59.59 1.2 1.12 1.86 1.6l.94-1.3Zm-1.68-1.43c-.53-.53-1.01-1.1-1.43-1.67l-1.3.94c.48.65 1 1.27 1.59 1.86l1.14-1.13ZM9.7 13.2a8.83 8.83 0 0 1-.97-1.69l-1.48.63c.29.67.68 1.34 1.15 2l1.3-.94Zm-.97-1.68a3.75 3.75 0 0 1-.33-1.46H6.8c0 .69.16 1.38.45 2.08l1.48-.62Zm-.33-1.46a2 2 0 0 1 .14-.74l-1.49-.6c-.17.43-.25.88-.25 1.34h1.6Zm.14-.75c.08-.21.22-.42.43-.61l-1.1-1.16c-.37.34-.64.74-.82 1.19l1.49.58Zm.44-.62c.22-.22.4-.28.56-.28V6.8c-.65 0-1.22.28-1.68.74l1.12 1.14Zm.56-.28c.04 0 .07 0 .1.02l.69-1.44a1.82 1.82 0 0 0-.79-.18v1.6Zm.1.02.03.02.01.02L11 7.54a1.68 1.68 0 0 0-.69-.57l-.67 1.45Zm.05.04 1.25 1.77 1.3-.93L11 7.54l-1.3.92Zm1.26 1.77c.07.1.1.17.12.22l1.48-.61a2.64 2.64 0 0 0-.3-.54l-1.3.93Zm.13.23.01.03v-.02h1.6c0-.23-.06-.46-.14-.64l-1.47.63Zm0 .01.01-.03 1.37.83c.14-.23.23-.5.23-.8h-1.6Zm0 0c-.03.04-.08.11-.17.2l1.13 1.14c.16-.17.32-.36.43-.56l-1.4-.79Zm-.18.21-.41.43 1.15 1.11.4-.43-1.14-1.1Zm-.4.42c-.23.22-.33.5-.33.78h1.6c0 .04 0 .1-.03.18a.51.51 0 0 1-.11.17L10.5 11.1Zm-.33.78c0 .12.02.22.04.32l1.56-.39v.07h-1.6Zm.07.4.04.1v-.01l1.51-.5-.04-.12a.82.82 0 0 1-.01-.02l-1.5.56Zm.1.22c.13.25.33.53.59.82l1.22-1.03a3.77 3.77 0 0 1-.41-.56l-1.4.77Zm.6.83c.24.29.52.59.81.89l1.14-1.12c-.27-.27-.51-.55-.75-.82l-1.2 1.05Zm.82.9c.3.3.6.57.9.83l1.04-1.22a15.5 15.5 0 0 1-.82-.75l-1.12 1.14Zm.9.83c.31.26.6.46.85.6l.74-1.42a3.4 3.4 0 0 1-.55-.4l-1.04 1.22Zm.92.63h.01l.07.04.63-1.47-.03-.02-.08-.03-.6 1.48Zm.12.05c.16.06.3.07.41.07v-1.6c.01 0 .07 0 .15.03l-.56 1.5Zm.41.07c.32 0 .59-.12.79-.32l-1.13-1.13a.49.49 0 0 1 .34-.15v1.6Zm.78-.32.42-.4-1.13-1.14-.4.4 1.11 1.14Zm.42-.4c.1-.1.17-.15.2-.17l-.75-1.41c-.22.11-.41.27-.58.44l1.13 1.13Zm.24-.2c.01 0 .01 0 0 0a.12.12 0 0 1-.03.01v-1.6c-.3 0-.57.09-.8.23l.83 1.37Zm-.03.01s-.01 0 0 0l.02.01.61-1.48c-.2-.08-.41-.13-.63-.13v1.6Zm.02.01c.06.02.13.06.24.13l.9-1.32a2.89 2.89 0 0 0-.53-.29l-.6 1.48Zm.22.13 1.8 1.26.92-1.3-1.8-1.27-.92 1.3Zm1.8 1.27.03.02v-.01l1.46-.65a1.62 1.62 0 0 0-.58-.68l-.9 1.32Zm.01-.02c.03.07.03.1.03.13h1.6c0-.28-.06-.51-.14-.72l-1.49.6Z" />
  </symbol>
</svg>
